<svg id="visual" viewBox="0 0 900 600" width="900" height="600" xmlns="http://www.w3.org/2000/svg" xmlns:xlink="http://www.w3.org/1999/xlink" version="1.1"><rect x="0" y="0" width="900" height="600" fill="#080021"></rect><path d="M0 420L21.5 411.7C43 403.3 86 386.7 128.8 375.8C171.7 365 214.3 360 257.2 364C300 368 343 381 385.8 392.5C428.7 404 471.3 414 514.2 410.5C557 407 600 390 642.8 383.3C685.7 376.7 728.3 380.3 771.2 376.5C814 372.7 857 361.3 878.5 355.7L900 350L900 601L878.5 601C857 601 814 601 771.2 601C728.3 601 685.7 601 642.8 601C600 601 557 601 514.2 601C471.3 601 428.7 601 385.8 601C343 601 300 601 257.2 601C214.3 601 171.7 601 128.8 601C86 601 43 601 21.5 601L0 601Z" fill="#3737a5"></path><path d="M0 466L21.5 456.5C43 447 86 428 128.8 426.8C171.7 425.7 214.3 442.3 257.2 452.8C300 463.3 343 467.7 385.8 461.3C428.7 455 471.3 438 514.2 426.3C557 414.7 600 408.3 642.8 416.5C685.7 424.7 728.3 447.3 771.2 456.7C814 466 857 462 878.5 460L900 458L900 601L878.5 601C857 601 814 601 771.2 601C728.3 601 685.7 601 642.8 601C600 601 557 601 514.2 601C471.3 601 428.7 601 385.8 601C343 601 300 601 257.2 601C214.3 601 171.7 601 128.8 601C86 601 43 601 21.5 601L0 601Z" fill="#722d9b"></path><path d="M0 483L21.5 477.8C43 472.7 86 462.3 128.8 459C171.7 455.7 214.3 459.3 257.2 460.2C300 461 343 459 385.8 463.2C428.7 467.3 471.3 477.7 514.2 482.5C557 487.3 600 486.7 642.8 489.3C685.7 492 728.3 498 771.2 497.3C814 496.7 857 489.3 878.5 485.7L900 482L900 601L878.5 601C857 601 814 601 771.2 601C728.3 601 685.7 601 642.8 601C600 601 557 601 514.2 601C471.3 601 428.7 601 385.8 601C343 601 300 601 257.2 601C214.3 601 171.7 601 128.8 601C86 601 43 601 21.5 601L0 601Z" fill="#98218d"></path><path d="M0 526L21.5 526.2C43 526.3 86 526.7 128.8 525.2C171.7 523.7 214.3 520.3 257.2 513.7C300 507 343 497 385.8 496.5C428.7 496 471.3 505 514.2 505.5C557 506 600 498 642.8 492.5C685.7 487 728.3 484 771.2 490C814 496 857 511 878.5 518.5L900 526L900 601L878.5 601C857 601 814 601 771.2 601C728.3 601 685.7 601 642.8 601C600 601 557 601 514.2 601C471.3 601 428.7 601 385.8 601C343 601 300 601 257.2 601C214.3 601 171.7 601 128.8 601C86 601 43 601 21.5 601L0 601Z" fill="#b31a7b"></path><path d="M0 561L21.5 561.5C43 562 86 563 128.8 562.3C171.7 561.7 214.3 559.3 257.2 552.8C300 546.3 343 535.7 385.8 536C428.7 536.3 471.3 547.7 514.2 550.3C557 553 600 547 642.8 545.3C685.7 543.7 728.3 546.3 771.2 545C814 543.7 857 538.3 878.5 535.7L900 533L900 601L878.5 601C857 601 814 601 771.2 601C728.3 601 685.7 601 642.8 601C600 601 557 601 514.2 601C471.3 601 428.7 601 385.8 601C343 601 300 601 257.2 601C214.3 601 171.7 601 128.8 601C86 601 43 601 21.5 601L0 601Z" fill="#c62368"></path></svg>