<svg id="visual" viewBox="0 0 1920 1080" width="1920" height="1080" xmlns="http://www.w3.org/2000/svg" xmlns:xlink="http://www.w3.org/1999/xlink" version="1.1"><rect x="0" y="0" width="1920" height="1080" fill="#18102f"></rect><path d="M775 0L844 154L753 309L870 463L661 617L664 771L888 926L958 1080L0 1080L0 926L0 771L0 617L0 463L0 309L0 154L0 0Z" fill="#c8ffef"></path><path d="M516 0L508 154L600 309L536 463L463 617L608 771L543 926L516 1080L0 1080L0 926L0 771L0 617L0 463L0 309L0 154L0 0Z" fill="#6be1f2"></path><path d="M534 0L495 154L612 309L544 463L527 617L422 771L463 926L569 1080L0 1080L0 926L0 771L0 617L0 463L0 309L0 154L0 0Z" fill="#00baff"></path><path d="M397 0L401 154L242 309L331 463L431 617L296 771L319 926L408 1080L0 1080L0 926L0 771L0 617L0 463L0 309L0 154L0 0Z" fill="#0084ff"></path><path d="M136 0L185 154L106 309L126 463L156 617L251 771L185 926L228 1080L0 1080L0 926L0 771L0 617L0 463L0 309L0 154L0 0Z" fill="#6600ff"></path></svg>