<svg id="visual" viewBox="0 0 1920 1080" width="1920" height="1080" xmlns="http://www.w3.org/2000/svg" xmlns:xlink="http://www.w3.org/1999/xlink" version="1.1"><g stroke-width="1" stroke-linejoin="bevel"><path d="M952 604L935 384L761 419Z" fill="#6baff2" stroke="#6baff2"></path><path d="M761 419L694 672L952 604Z" fill="#87beeb" stroke="#87beeb"></path><path d="M1236 439L979 222L935 384Z" fill="#715df2" stroke="#715df2"></path><path d="M935 384L706 198L761 419Z" fill="#569ff8" stroke="#569ff8"></path><path d="M979 222L706 198L935 384Z" fill="#6baff2" stroke="#6baff2"></path><path d="M761 419L493 470L694 672Z" fill="#6baff2" stroke="#6baff2"></path><path d="M756 849L985 845L952 604Z" fill="#5096fa" stroke="#5096fa"></path><path d="M952 604L1236 439L935 384Z" fill="#569ff8" stroke="#569ff8"></path><path d="M694 672L756 849L952 604Z" fill="#656bf7" stroke="#656bf7"></path><path d="M1243 615L1236 439L952 604Z" fill="#5382fb" stroke="#5382fb"></path><path d="M706 198L493 470L761 419Z" fill="#5fa7f6" stroke="#5fa7f6"></path><path d="M694 672L504 845L756 849Z" fill="#78b7ef" stroke="#78b7ef"></path><path d="M493 470L512 631L694 672Z" fill="#5fa7f6" stroke="#5fa7f6"></path><path d="M985 845L1243 615L952 604Z" fill="#78b7ef" stroke="#78b7ef"></path><path d="M1236 439L1203 194L979 222Z" fill="#715df2" stroke="#715df2"></path><path d="M979 222L750 0L706 198Z" fill="#715df2" stroke="#715df2"></path><path d="M706 198L513 189L493 470Z" fill="#5b77f9" stroke="#5b77f9"></path><path d="M486 0L513 189L706 198Z" fill="#87beeb" stroke="#87beeb"></path><path d="M1005 1080L1178 892L985 845Z" fill="#5096fa" stroke="#5096fa"></path><path d="M985 845L1178 892L1243 615Z" fill="#5b77f9" stroke="#5b77f9"></path><path d="M266 633L504 845L512 631Z" fill="#715df2" stroke="#715df2"></path><path d="M512 631L504 845L694 672Z" fill="#6baff2" stroke="#6baff2"></path><path d="M756 849L1005 1080L985 845Z" fill="#5b77f9" stroke="#5b77f9"></path><path d="M1003 0L750 0L979 222Z" fill="#715df2" stroke="#715df2"></path><path d="M1203 194L1003 0L979 222Z" fill="#715df2" stroke="#715df2"></path><path d="M1236 439L1415 171L1203 194Z" fill="#5fa7f6" stroke="#5fa7f6"></path><path d="M1243 615L1418 456L1236 439Z" fill="#5096fa" stroke="#5096fa"></path><path d="M1446 605L1418 456L1243 615Z" fill="#6baff2" stroke="#6baff2"></path><path d="M1405 822L1446 605L1243 615Z" fill="#5096fa" stroke="#5096fa"></path><path d="M1203 194L1178 0L1003 0Z" fill="#5096fa" stroke="#5096fa"></path><path d="M1415 171L1178 0L1203 194Z" fill="#5b77f9" stroke="#5b77f9"></path><path d="M504 845L733 1080L756 849Z" fill="#5382fb" stroke="#5382fb"></path><path d="M733 1080L1005 1080L756 849Z" fill="#5096fa" stroke="#5096fa"></path><path d="M1178 892L1405 822L1243 615Z" fill="#5b77f9" stroke="#5b77f9"></path><path d="M493 470L266 633L512 631Z" fill="#87beeb" stroke="#87beeb"></path><path d="M504 845L459 1080L733 1080Z" fill="#715df2" stroke="#715df2"></path><path d="M207 430L266 633L493 470Z" fill="#5096fa" stroke="#5096fa"></path><path d="M1219 1080L1405 822L1178 892Z" fill="#569ff8" stroke="#569ff8"></path><path d="M750 0L486 0L706 198Z" fill="#5b77f9" stroke="#5b77f9"></path><path d="M513 189L207 430L493 470Z" fill="#5b77f9" stroke="#5b77f9"></path><path d="M1474 0L1415 171L1671 225Z" fill="#715df2" stroke="#715df2"></path><path d="M1418 456L1415 171L1236 439Z" fill="#4f8cfb" stroke="#4f8cfb"></path><path d="M214 197L207 430L513 189Z" fill="#87beeb" stroke="#87beeb"></path><path d="M1005 1080L1219 1080L1178 892Z" fill="#656bf7" stroke="#656bf7"></path><path d="M225 859L459 1080L504 845Z" fill="#5b77f9" stroke="#5b77f9"></path><path d="M486 0L214 197L513 189Z" fill="#78b7ef" stroke="#78b7ef"></path><path d="M0 622L225 859L266 633Z" fill="#5096fa" stroke="#5096fa"></path><path d="M266 633L225 859L504 845Z" fill="#5b77f9" stroke="#5b77f9"></path><path d="M1671 225L1415 171L1418 456Z" fill="#569ff8" stroke="#569ff8"></path><path d="M1415 171L1474 0L1178 0Z" fill="#87beeb" stroke="#87beeb"></path><path d="M1219 1080L1430 1080L1405 822Z" fill="#87beeb" stroke="#87beeb"></path><path d="M1718 677L1677 446L1446 605Z" fill="#5096fa" stroke="#5096fa"></path><path d="M1446 605L1677 446L1418 456Z" fill="#569ff8" stroke="#569ff8"></path><path d="M1718 677L1446 605L1692 843Z" fill="#4f8cfb" stroke="#4f8cfb"></path><path d="M486 0L225 0L214 197Z" fill="#4f8cfb" stroke="#4f8cfb"></path><path d="M225 859L276 1080L459 1080Z" fill="#569ff8" stroke="#569ff8"></path><path d="M1677 446L1671 225L1418 456Z" fill="#715df2" stroke="#715df2"></path><path d="M1692 843L1446 605L1405 822Z" fill="#6baff2" stroke="#6baff2"></path><path d="M1677 446L1920 247L1671 225Z" fill="#5096fa" stroke="#5096fa"></path><path d="M0 263L207 430L214 197Z" fill="#87beeb" stroke="#87beeb"></path><path d="M0 263L0 388L207 430Z" fill="#569ff8" stroke="#569ff8"></path><path d="M207 430L0 622L266 633Z" fill="#569ff8" stroke="#569ff8"></path><path d="M225 859L0 1080L276 1080Z" fill="#715df2" stroke="#715df2"></path><path d="M0 388L0 622L207 430Z" fill="#656bf7" stroke="#656bf7"></path><path d="M1430 1080L1692 843L1405 822Z" fill="#5b77f9" stroke="#5b77f9"></path><path d="M0 0L0 263L214 197Z" fill="#5fa7f6" stroke="#5fa7f6"></path><path d="M1671 225L1645 0L1474 0Z" fill="#4f8cfb" stroke="#4f8cfb"></path><path d="M0 622L0 871L225 859Z" fill="#569ff8" stroke="#569ff8"></path><path d="M1430 1080L1677 1080L1692 843Z" fill="#5b77f9" stroke="#5b77f9"></path><path d="M1920 662L1920 427L1718 677Z" fill="#715df2" stroke="#715df2"></path><path d="M225 0L0 0L214 197Z" fill="#4f8cfb" stroke="#4f8cfb"></path><path d="M0 871L0 1080L225 859Z" fill="#5fa7f6" stroke="#5fa7f6"></path><path d="M1718 677L1920 427L1677 446Z" fill="#5382fb" stroke="#5382fb"></path><path d="M1671 225L1920 0L1645 0Z" fill="#569ff8" stroke="#569ff8"></path><path d="M1920 662L1718 677L1920 834Z" fill="#656bf7" stroke="#656bf7"></path><path d="M1920 834L1718 677L1692 843Z" fill="#569ff8" stroke="#569ff8"></path><path d="M1920 427L1920 247L1677 446Z" fill="#78b7ef" stroke="#78b7ef"></path><path d="M1920 1080L1920 834L1692 843Z" fill="#715df2" stroke="#715df2"></path><path d="M1920 247L1920 0L1671 225Z" fill="#78b7ef" stroke="#78b7ef"></path><path d="M1677 1080L1920 1080L1692 843Z" fill="#5096fa" stroke="#5096fa"></path></g></svg>