<svg id="visual" viewBox="0 0 1920 1080" width="1920" height="1080" xmlns="http://www.w3.org/2000/svg" xmlns:xlink="http://www.w3.org/1999/xlink" version="1.1"><rect x="0" y="0" width="1920" height="1080" fill="#18102f"></rect><path d="M0 773L274 766L549 638L823 697L1097 757L1371 716L1646 639L1920 767L1920 1081L1646 1081L1371 1081L1097 1081L823 1081L549 1081L274 1081L0 1081Z" fill="#c8ffef"></path><path d="M0 832L274 830L549 862L823 767L1097 858L1371 857L1646 717L1920 848L1920 1081L1646 1081L1371 1081L1097 1081L823 1081L549 1081L274 1081L0 1081Z" fill="#6be1f2"></path><path d="M0 901L274 838L549 855L823 885L1097 845L1371 888L1646 916L1920 909L1920 1081L1646 1081L1371 1081L1097 1081L823 1081L549 1081L274 1081L0 1081Z" fill="#00baff"></path><path d="M0 931L274 870L549 966L823 879L1097 889L1371 956L1646 907L1920 963L1920 1081L1646 1081L1371 1081L1097 1081L823 1081L549 1081L274 1081L0 1081Z" fill="#0084ff"></path><path d="M0 999L274 1022L549 973L823 946L1097 948L1371 979L1646 1013L1920 1022L1920 1081L1646 1081L1371 1081L1097 1081L823 1081L549 1081L274 1081L0 1081Z" fill="#6600ff"></path></svg>