<svg id="visual" viewBox="0 0 1920 1080" width="1920" height="1080" xmlns="http://www.w3.org/2000/svg" xmlns:xlink="http://www.w3.org/1999/xlink" version="1.1"><rect x="0" y="0" width="1920" height="1080" fill="#18102f"></rect><path d="M0 754L240 737L480 658L720 771L960 757L1200 759L1440 679L1680 789L1920 684L1920 1081L1680 1081L1440 1081L1200 1081L960 1081L720 1081L480 1081L240 1081L0 1081Z" fill="#6c63ff"></path><path d="M0 791L240 821L480 787L720 816L960 719L1200 796L1440 855L1680 816L1920 856L1920 1081L1680 1081L1440 1081L1200 1081L960 1081L720 1081L480 1081L240 1081L0 1081Z" fill="#bd7aef"></path><path d="M0 867L240 919L480 868L720 887L960 880L1200 801L1440 843L1680 832L1920 870L1920 1081L1680 1081L1440 1081L1200 1081L960 1081L720 1081L480 1081L240 1081L0 1081Z" fill="#e79de6"></path><path d="M0 932L240 966L480 882L720 954L960 886L1200 928L1440 900L1680 920L1920 918L1920 1081L1680 1081L1440 1081L1200 1081L960 1081L720 1081L480 1081L240 1081L0 1081Z" fill="#fcc7e8"></path><path d="M0 966L240 949L480 976L720 1001L960 1008L1200 961L1440 987L1680 951L1920 957L1920 1081L1680 1081L1440 1081L1200 1081L960 1081L720 1081L480 1081L240 1081L0 1081Z" fill="#fff4f8"></path></svg>