<svg id="visual" viewBox="0 0 1920 1080" width="1920" height="1080" xmlns="http://www.w3.org/2000/svg" xmlns:xlink="http://www.w3.org/1999/xlink" version="1.1"><rect x="0" y="0" width="1920" height="1080" fill="#715DF2"></rect><g fill="none" stroke="#ffffff" stroke-width="4"><path d="M59.4 34.3L59.4 153L-59.4 153L-59.4 34.3L-162.2 -25.1L-102.8 -127.9L0 -68.6L102.8 -127.9L162.2 -25.1Z" transform="translate(484 642)"></path><path d="M44.5 25.7L44.5 114.8L-44.5 114.8L-44.5 25.7L-121.6 -18.8L-77.1 -95.9L0 -51.4L77.1 -95.9L121.6 -18.8Z" transform="translate(151 347)"></path><path d="M47.5 27.4L47.5 122.4L-47.5 122.4L-47.5 27.4L-129.8 -20.1L-82.3 -102.3L0 -54.8L82.3 -102.3L129.8 -20.1Z" transform="translate(578 97)"></path><path d="M48.3 27.9L48.3 124.5L-48.3 124.5L-48.3 27.9L-132 -20.4L-83.7 -104.1L0 -55.8L83.7 -104.1L132 -20.4Z" transform="translate(1535 733)"></path><path d="M48.6 28L48.6 125.2L-48.6 125.2L-48.6 28L-132.7 -20.5L-84.1 -104.7L0 -56.1L84.1 -104.7L132.7 -20.5Z" transform="translate(1049 896)"></path><path d="M52.1 30.1L52.1 134.2L-52.1 134.2L-52.1 30.1L-142.3 -22L-90.2 -112.2L0 -60.1L90.2 -112.2L142.3 -22Z" transform="translate(1694 147)"></path><path d="M49.7 28.7L49.7 128L-49.7 128L-49.7 28.7L-135.7 -21L-86 -107L0 -57.3L86 -107L135.7 -21Z" transform="translate(1186 239)"></path><path d="M45.3 26.2L45.3 116.8L-45.3 116.8L-45.3 26.2L-123.9 -19.2L-78.5 -97.7L0 -52.3L78.5 -97.7L123.9 -19.2Z" transform="translate(1 815)"></path><path d="M56.9 32.9L56.9 146.8L-56.9 146.8L-56.9 32.9L-155.6 -24.1L-98.6 -122.7L0 -65.7L98.6 -122.7L155.6 -24.1Z" transform="translate(1838 1071)"></path></g></svg>