<svg id="visual" viewBox="0 0 1920 1080" width="1920" height="1080" xmlns="http://www.w3.org/2000/svg" xmlns:xlink="http://www.w3.org/1999/xlink" version="1.1"><rect width="1920" height="1080" fill="#715DF2"></rect><g><g transform="translate(352 710)"><path d="M250.3 -154.6C292.6 -71.1 273.4 37.9 221.5 117.6C169.5 197.3 84.8 247.7 -2.7 249.3C-90.1 250.8 -180.3 203.5 -224.9 128.1C-269.4 52.6 -268.4 -50.9 -223.3 -135.9C-178.3 -221 -89.1 -287.6 7.4 -291.9C103.9 -296.2 207.9 -238.1 250.3 -154.6Z" stroke="#ffffff" fill="none" stroke-width="20"></path></g><g transform="translate(1731 461)"><path d="M203.1 -124.5C243.4 -47.5 242.5 46 201.8 124.1C161.1 202.3 80.5 265.1 0.3 264.9C-79.8 264.7 -159.7 201.5 -199.4 123.9C-239.2 46.3 -238.9 -45.7 -198.9 -122.5C-159 -199.3 -79.5 -260.9 1 -261.4C81.4 -262 162.8 -201.5 203.1 -124.5Z" stroke="#ffffff" fill="none" stroke-width="20"></path></g><g transform="translate(783 55)"><path d="M160 -92.2C191.3 -38.1 189.5 35.1 157.4 88C125.2 140.9 62.6 173.5 2.5 172C-57.6 170.6 -115.1 135.1 -145 83.6C-174.8 32 -177 -35.7 -148.2 -88.3C-119.4 -140.8 -59.7 -178.3 2.3 -179.6C64.3 -180.9 128.7 -146.2 160 -92.2Z" stroke="#ffffff" fill="none" stroke-width="20"></path></g></g></svg>