<svg id="visual" viewBox="0 0 1920 1080" width="1920" height="1080" xmlns="http://www.w3.org/2000/svg" xmlns:xlink="http://www.w3.org/1999/xlink" version="1.1"><rect x="0" y="0" width="1920" height="1080" fill="#18102f"></rect><path d="M0 555L240 597L480 705L720 687L960 554L1200 676L1440 544L1680 550L1920 617L1920 0L1680 0L1440 0L1200 0L960 0L720 0L480 0L240 0L0 0Z" fill="#fff4f8"></path><path d="M0 526L240 472L480 478L720 419L960 494L1200 509L1440 426L1680 488L1920 498L1920 0L1680 0L1440 0L1200 0L960 0L720 0L480 0L240 0L0 0Z" fill="#fcc7e8"></path><path d="M0 335L240 405L480 367L720 477L960 393L1200 318L1440 396L1680 443L1920 302L1920 0L1680 0L1440 0L1200 0L960 0L720 0L480 0L240 0L0 0Z" fill="#e79de6"></path><path d="M0 227L240 313L480 203L720 270L960 257L1200 331L1440 247L1680 252L1920 211L1920 0L1680 0L1440 0L1200 0L960 0L720 0L480 0L240 0L0 0Z" fill="#bd7aef"></path><path d="M0 195L240 106L480 131L720 158L960 201L1200 133L1440 205L1680 186L1920 144L1920 0L1680 0L1440 0L1200 0L960 0L720 0L480 0L240 0L0 0Z" fill="#6c63ff"></path></svg>