<svg id="visual" viewBox="0 0 1920 1080" width="1920" height="1080" xmlns="http://www.w3.org/2000/svg" xmlns:xlink="http://www.w3.org/1999/xlink" version="1.1"><rect x="0" y="0" width="1920" height="1080" fill="#22144a"></rect><defs><linearGradient id="grad1_0" x1="43.8%" y1="0%" x2="100%" y2="100%"><stop offset="14.444444444444446%" stop-color="#fff4f8" stop-opacity="1"></stop><stop offset="85.55555555555554%" stop-color="#fff4f8" stop-opacity="1"></stop></linearGradient></defs><defs><linearGradient id="grad1_1" x1="43.8%" y1="0%" x2="100%" y2="100%"><stop offset="14.444444444444446%" stop-color="#fff4f8" stop-opacity="1"></stop><stop offset="85.55555555555554%" stop-color="#ceb3c3" stop-opacity="1"></stop></linearGradient></defs><defs><linearGradient id="grad1_2" x1="43.8%" y1="0%" x2="100%" y2="100%"><stop offset="14.444444444444446%" stop-color="#997795" stop-opacity="1"></stop><stop offset="85.55555555555554%" stop-color="#ceb3c3" stop-opacity="1"></stop></linearGradient></defs><defs><linearGradient id="grad1_3" x1="43.8%" y1="0%" x2="100%" y2="100%"><stop offset="14.444444444444446%" stop-color="#997795" stop-opacity="1"></stop><stop offset="85.55555555555554%" stop-color="#61426e" stop-opacity="1"></stop></linearGradient></defs><defs><linearGradient id="grad1_4" x1="43.8%" y1="0%" x2="100%" y2="100%"><stop offset="14.444444444444446%" stop-color="#22144a" stop-opacity="1"></stop><stop offset="85.55555555555554%" stop-color="#61426e" stop-opacity="1"></stop></linearGradient></defs><defs><linearGradient id="grad2_0" x1="0%" y1="0%" x2="56.3%" y2="100%"><stop offset="14.444444444444446%" stop-color="#fff4f8" stop-opacity="1"></stop><stop offset="85.55555555555554%" stop-color="#fff4f8" stop-opacity="1"></stop></linearGradient></defs><defs><linearGradient id="grad2_1" x1="0%" y1="0%" x2="56.3%" y2="100%"><stop offset="14.444444444444446%" stop-color="#ceb3c3" stop-opacity="1"></stop><stop offset="85.55555555555554%" stop-color="#fff4f8" stop-opacity="1"></stop></linearGradient></defs><defs><linearGradient id="grad2_2" x1="0%" y1="0%" x2="56.3%" y2="100%"><stop offset="14.444444444444446%" stop-color="#ceb3c3" stop-opacity="1"></stop><stop offset="85.55555555555554%" stop-color="#997795" stop-opacity="1"></stop></linearGradient></defs><defs><linearGradient id="grad2_3" x1="0%" y1="0%" x2="56.3%" y2="100%"><stop offset="14.444444444444446%" stop-color="#61426e" stop-opacity="1"></stop><stop offset="85.55555555555554%" stop-color="#997795" stop-opacity="1"></stop></linearGradient></defs><defs><linearGradient id="grad2_4" x1="0%" y1="0%" x2="56.3%" y2="100%"><stop offset="14.444444444444446%" stop-color="#61426e" stop-opacity="1"></stop><stop offset="85.55555555555554%" stop-color="#22144a" stop-opacity="1"></stop></linearGradient></defs><g transform="translate(1920, 0)"><path d="M0 918C-112.4 883.8 -224.8 849.7 -334.8 808.4C-444.9 767.1 -552.7 718.8 -642.8 642.8C-732.8 566.7 -805.2 463 -848.1 351.3C-891 239.6 -904.5 119.8 -918 0L0 0Z" fill="#432a5b"></path><path d="M0 734.4C-89.9 707.1 -179.8 679.7 -267.9 646.7C-355.9 613.7 -442.2 575 -514.2 514.2C-586.3 453.4 -644.2 370.4 -678.5 281C-712.8 191.7 -723.6 95.8 -734.4 0L0 0Z" fill="#7d5c81"></path><path d="M0 550.8C-67.4 530.3 -134.9 509.8 -200.9 485C-267 460.3 -331.6 431.3 -385.7 385.7C-439.7 340 -483.1 277.8 -508.9 210.8C-534.6 143.7 -542.7 71.9 -550.8 0L0 0Z" fill="#b495ab"></path><path d="M0 367.2C-45 353.5 -89.9 339.9 -133.9 323.4C-178 306.9 -221.1 287.5 -257.1 257.1C-293.1 226.7 -322.1 185.2 -339.2 140.5C-356.4 95.8 -361.8 47.9 -367.2 0L0 0Z" fill="#e7d3dc"></path><path d="M0 183.6C-22.5 176.8 -45 169.9 -67 161.7C-89 153.4 -110.5 143.8 -128.6 128.6C-146.6 113.3 -161 92.6 -169.6 70.3C-178.2 47.9 -180.9 24 -183.6 0L0 0Z" fill="#fff4f8"></path></g><g transform="translate(0, 1080)"><path d="M0 -918C119.6 -904.1 239.2 -890.2 351.3 -848.1C463.4 -806.1 568 -735.8 647 -647C726 -558.2 779.5 -450.8 820.4 -339.8C861.3 -228.9 889.7 -114.4 918 0L0 0Z" fill="#432a5b"></path><path d="M0 -734.4C95.7 -723.3 191.4 -712.2 281 -678.5C370.7 -644.8 454.4 -588.7 517.6 -517.6C580.8 -446.5 623.6 -360.6 656.3 -271.9C689 -183.1 711.7 -91.6 734.4 0L0 0Z" fill="#7d5c81"></path><path d="M0 -550.8C71.8 -542.5 143.5 -534.1 210.8 -508.9C278 -483.6 340.8 -441.5 388.2 -388.2C435.6 -334.9 467.7 -270.5 492.2 -203.9C516.8 -137.3 533.8 -68.7 550.8 0L0 0Z" fill="#b495ab"></path><path d="M0 -367.2C47.8 -361.6 95.7 -356.1 140.5 -339.2C185.4 -322.4 227.2 -294.3 258.8 -258.8C290.4 -223.3 311.8 -180.3 328.2 -135.9C344.5 -91.6 355.9 -45.8 367.2 0L0 0Z" fill="#e7d3dc"></path><path d="M0 -183.6C23.9 -180.8 47.8 -178 70.3 -169.6C92.7 -161.2 113.6 -147.2 129.4 -129.4C145.2 -111.6 155.9 -90.2 164.1 -68C172.3 -45.8 177.9 -22.9 183.6 0L0 0Z" fill="#fff4f8"></path></g></svg>