<svg id="visual" viewBox="0 0 1920 1080" width="1920" height="1080" xmlns="http://www.w3.org/2000/svg" xmlns:xlink="http://www.w3.org/1999/xlink" version="1.1"><g stroke-width="1" stroke-linejoin="bevel"><path d="M952 651L717 659L940 831Z" fill="#fde0f0" stroke="#fde0f0"></path><path d="M717 659L733 847L940 831Z" fill="#eec4ef" stroke="#eec4ef"></path><path d="M952 651L945 415L717 659Z" fill="#ccaef7" stroke="#ccaef7"></path><path d="M940 831L1171 658L952 651Z" fill="#ffeaf3" stroke="#ffeaf3"></path><path d="M952 651L1171 658L945 415Z" fill="#e5bcf1" stroke="#e5bcf1"></path><path d="M688 410L499 648L717 659Z" fill="#fde0f0" stroke="#fde0f0"></path><path d="M717 659L499 648L733 847Z" fill="#eec4ef" stroke="#eec4ef"></path><path d="M945 415L688 410L717 659Z" fill="#dab4f4" stroke="#dab4f4"></path><path d="M691 1080L949 1080L733 847Z" fill="#a8a3fe" stroke="#a8a3fe"></path><path d="M733 847L949 1080L940 831Z" fill="#fde0f0" stroke="#fde0f0"></path><path d="M940 831L1169 892L1171 658Z" fill="#eec4ef" stroke="#eec4ef"></path><path d="M949 1080L1169 892L940 831Z" fill="#a8a3fe" stroke="#a8a3fe"></path><path d="M458 833L691 1080L733 847Z" fill="#bca8fa" stroke="#bca8fa"></path><path d="M499 648L458 833L733 847Z" fill="#e5bcf1" stroke="#e5bcf1"></path><path d="M688 410L468 446L499 648Z" fill="#ccaef7" stroke="#ccaef7"></path><path d="M212 664L252 859L458 833Z" fill="#dab4f4" stroke="#dab4f4"></path><path d="M1425 660L1210 427L1171 658Z" fill="#ffeaf3" stroke="#ffeaf3"></path><path d="M1171 658L1210 427L945 415Z" fill="#e5bcf1" stroke="#e5bcf1"></path><path d="M949 1080L1202 1080L1169 892Z" fill="#ffeaf3" stroke="#ffeaf3"></path><path d="M1169 892L1425 660L1171 658Z" fill="#e5bcf1" stroke="#e5bcf1"></path><path d="M458 833L452 1080L691 1080Z" fill="#ffeaf3" stroke="#ffeaf3"></path><path d="M945 415L750 212L688 410Z" fill="#e5bcf1" stroke="#e5bcf1"></path><path d="M688 410L447 230L468 446Z" fill="#ffeaf3" stroke="#ffeaf3"></path><path d="M963 217L750 212L945 415Z" fill="#eec4ef" stroke="#eec4ef"></path><path d="M1183 248L963 217L945 415Z" fill="#a8a3fe" stroke="#a8a3fe"></path><path d="M1471 885L1425 660L1169 892Z" fill="#dab4f4" stroke="#dab4f4"></path><path d="M1210 427L1183 248L945 415Z" fill="#bca8fa" stroke="#bca8fa"></path><path d="M1412 410L1183 248L1210 427Z" fill="#bca8fa" stroke="#bca8fa"></path><path d="M212 664L458 833L499 648Z" fill="#ffeaf3" stroke="#ffeaf3"></path><path d="M458 833L252 859L452 1080Z" fill="#f5cdee" stroke="#f5cdee"></path><path d="M468 446L212 664L499 648Z" fill="#dab4f4" stroke="#dab4f4"></path><path d="M750 212L447 230L688 410Z" fill="#fde0f0" stroke="#fde0f0"></path><path d="M468 446L258 406L212 664Z" fill="#eec4ef" stroke="#eec4ef"></path><path d="M1419 1080L1471 885L1169 892Z" fill="#ffeaf3" stroke="#ffeaf3"></path><path d="M1682 437L1412 410L1425 660Z" fill="#f5cdee" stroke="#f5cdee"></path><path d="M1425 660L1412 410L1210 427Z" fill="#fff4f8" stroke="#fff4f8"></path><path d="M447 230L258 406L468 446Z" fill="#bca8fa" stroke="#bca8fa"></path><path d="M1202 1080L1419 1080L1169 892Z" fill="#fad6ef" stroke="#fad6ef"></path><path d="M0 889L212 1080L252 859Z" fill="#e5bcf1" stroke="#e5bcf1"></path><path d="M252 859L212 1080L452 1080Z" fill="#fad6ef" stroke="#fad6ef"></path><path d="M750 212L493 0L447 230Z" fill="#fad6ef" stroke="#fad6ef"></path><path d="M972 0L745 0L750 212Z" fill="#fff4f8" stroke="#fff4f8"></path><path d="M972 0L750 212L963 217Z" fill="#bca8fa" stroke="#bca8fa"></path><path d="M1218 0L972 0L1183 248Z" fill="#eec4ef" stroke="#eec4ef"></path><path d="M1183 248L972 0L963 217Z" fill="#eec4ef" stroke="#eec4ef"></path><path d="M1682 437L1414 220L1412 410Z" fill="#dab4f4" stroke="#dab4f4"></path><path d="M1412 410L1414 220L1183 248Z" fill="#dab4f4" stroke="#dab4f4"></path><path d="M0 459L0 639L212 664Z" fill="#ccaef7" stroke="#ccaef7"></path><path d="M447 230L238 243L258 406Z" fill="#dab4f4" stroke="#dab4f4"></path><path d="M218 0L238 243L447 230Z" fill="#e5bcf1" stroke="#e5bcf1"></path><path d="M745 0L493 0L750 212Z" fill="#ffeaf3" stroke="#ffeaf3"></path><path d="M1414 220L1218 0L1183 248Z" fill="#e5bcf1" stroke="#e5bcf1"></path><path d="M1471 885L1664 679L1425 660Z" fill="#fde0f0" stroke="#fde0f0"></path><path d="M1669 852L1664 679L1471 885Z" fill="#e5bcf1" stroke="#e5bcf1"></path><path d="M1664 1080L1669 852L1471 885Z" fill="#e5bcf1" stroke="#e5bcf1"></path><path d="M0 459L212 664L258 406Z" fill="#f5cdee" stroke="#f5cdee"></path><path d="M212 664L0 889L252 859Z" fill="#e5bcf1" stroke="#e5bcf1"></path><path d="M0 639L0 889L212 664Z" fill="#dab4f4" stroke="#dab4f4"></path><path d="M238 243L0 459L258 406Z" fill="#fad6ef" stroke="#fad6ef"></path><path d="M0 213L0 459L238 243Z" fill="#ffeaf3" stroke="#ffeaf3"></path><path d="M1920 646L1682 437L1664 679Z" fill="#e5bcf1" stroke="#e5bcf1"></path><path d="M1664 679L1682 437L1425 660Z" fill="#bca8fa" stroke="#bca8fa"></path><path d="M1414 220L1466 0L1218 0Z" fill="#e5bcf1" stroke="#e5bcf1"></path><path d="M1419 1080L1664 1080L1471 885Z" fill="#fff4f8" stroke="#fff4f8"></path><path d="M1920 405L1697 213L1682 437Z" fill="#ffeaf3" stroke="#ffeaf3"></path><path d="M0 889L0 1080L212 1080Z" fill="#f5cdee" stroke="#f5cdee"></path><path d="M493 0L218 0L447 230Z" fill="#a8a3fe" stroke="#a8a3fe"></path><path d="M1697 213L1466 0L1414 220Z" fill="#a8a3fe" stroke="#a8a3fe"></path><path d="M218 0L0 213L238 243Z" fill="#ffeaf3" stroke="#ffeaf3"></path><path d="M1920 646L1664 679L1920 844Z" fill="#ccaef7" stroke="#ccaef7"></path><path d="M1682 437L1697 213L1414 220Z" fill="#fde0f0" stroke="#fde0f0"></path><path d="M1920 844L1664 679L1669 852Z" fill="#a8a3fe" stroke="#a8a3fe"></path><path d="M1920 1080L1920 844L1669 852Z" fill="#ccaef7" stroke="#ccaef7"></path><path d="M218 0L0 0L0 213Z" fill="#eec4ef" stroke="#eec4ef"></path><path d="M1920 185L1692 0L1697 213Z" fill="#e5bcf1" stroke="#e5bcf1"></path><path d="M1697 213L1692 0L1466 0Z" fill="#fff4f8" stroke="#fff4f8"></path><path d="M1920 646L1920 405L1682 437Z" fill="#ffeaf3" stroke="#ffeaf3"></path><path d="M1664 1080L1920 1080L1669 852Z" fill="#fad6ef" stroke="#fad6ef"></path><path d="M1920 405L1920 185L1697 213Z" fill="#a8a3fe" stroke="#a8a3fe"></path><path d="M1920 185L1920 0L1692 0Z" fill="#ffeaf3" stroke="#ffeaf3"></path></g></svg>