<svg id="visual" viewBox="0 0 1920 1080" width="1920" height="1080" xmlns="http://www.w3.org/2000/svg" xmlns:xlink="http://www.w3.org/1999/xlink" version="1.1"><rect x="0" y="0" width="1920" height="1080" fill="#18102f"></rect><path d="M0 736L213 647L427 713L640 661L853 751L1067 645L1280 754L1493 668L1707 740L1920 715L1920 0L1707 0L1493 0L1280 0L1067 0L853 0L640 0L427 0L213 0L0 0Z" fill="#fff4f8"></path><path d="M0 608L213 674L427 665L640 668L853 611L1067 630L1280 645L1493 655L1707 622L1920 672L1920 0L1707 0L1493 0L1280 0L1067 0L853 0L640 0L427 0L213 0L0 0Z" fill="#ffe3f0"></path><path d="M0 629L213 630L427 551L640 581L853 587L1067 578L1280 529L1493 560L1707 600L1920 633L1920 0L1707 0L1493 0L1280 0L1067 0L853 0L640 0L427 0L213 0L0 0Z" fill="#fed3ea"></path><path d="M0 483L213 548L427 510L640 556L853 502L1067 563L1280 568L1493 545L1707 499L1920 513L1920 0L1707 0L1493 0L1280 0L1067 0L853 0L640 0L427 0L213 0L0 0Z" fill="#fbc3e7"></path><path d="M0 463L213 486L427 498L640 491L853 408L1067 476L1280 433L1493 502L1707 412L1920 461L1920 0L1707 0L1493 0L1280 0L1067 0L853 0L640 0L427 0L213 0L0 0Z" fill="#f5b3e5"></path><path d="M0 435L213 443L427 450L640 417L853 408L1067 429L1280 373L1493 382L1707 386L1920 395L1920 0L1707 0L1493 0L1280 0L1067 0L853 0L640 0L427 0L213 0L0 0Z" fill="#eca4e5"></path><path d="M0 334L213 360L427 360L640 365L853 312L1067 349L1280 303L1493 353L1707 360L1920 376L1920 0L1707 0L1493 0L1280 0L1067 0L853 0L640 0L427 0L213 0L0 0Z" fill="#e196e7"></path><path d="M0 268L213 299L427 316L640 267L853 250L1067 287L1280 280L1493 310L1707 267L1920 331L1920 0L1707 0L1493 0L1280 0L1067 0L853 0L640 0L427 0L213 0L0 0Z" fill="#d389ea"></path><path d="M0 216L213 239L427 212L640 215L853 245L1067 238L1280 205L1493 229L1707 254L1920 204L1920 0L1707 0L1493 0L1280 0L1067 0L853 0L640 0L427 0L213 0L0 0Z" fill="#c27dee"></path><path d="M0 190L213 153L427 155L640 156L853 175L1067 184L1280 145L1493 189L1707 165L1920 178L1920 0L1707 0L1493 0L1280 0L1067 0L853 0L640 0L427 0L213 0L0 0Z" fill="#ad72f3"></path><path d="M0 122L213 127L427 142L640 142L853 117L1067 147L1280 151L1493 124L1707 125L1920 149L1920 0L1707 0L1493 0L1280 0L1067 0L853 0L640 0L427 0L213 0L0 0Z" fill="#926af9"></path><path d="M0 84L213 57L427 78L640 44L853 92L1067 61L1280 59L1493 58L1707 84L1920 67L1920 0L1707 0L1493 0L1280 0L1067 0L853 0L640 0L427 0L213 0L0 0Z" fill="#6c63ff"></path></svg>