<svg id="visual" viewBox="0 0 1920 1080" width="1920" height="1080" xmlns="http://www.w3.org/2000/svg" xmlns:xlink="http://www.w3.org/1999/xlink" version="1.1"><rect x="0" y="0" width="1920" height="1080" fill="#18102f"></rect><path d="M0 687L240 546L480 586L720 652L960 568L1200 553L1440 689L1680 573L1920 689L1920 1081L1680 1081L1440 1081L1200 1081L960 1081L720 1081L480 1081L240 1081L0 1081Z" fill="#fff4f8"></path><path d="M0 710L240 689L480 755L720 653L960 736L1200 699L1440 762L1680 730L1920 700L1920 1081L1680 1081L1440 1081L1200 1081L960 1081L720 1081L480 1081L240 1081L0 1081Z" fill="#fcc7e8"></path><path d="M0 834L240 733L480 818L720 831L960 756L1200 734L1440 842L1680 792L1920 773L1920 1081L1680 1081L1440 1081L1200 1081L960 1081L720 1081L480 1081L240 1081L0 1081Z" fill="#e79de6"></path><path d="M0 934L240 822L480 868L720 929L960 853L1200 842L1440 837L1680 840L1920 925L1920 1081L1680 1081L1440 1081L1200 1081L960 1081L720 1081L480 1081L240 1081L0 1081Z" fill="#bd7aef"></path><path d="M0 1004L240 945L480 963L720 934L960 941L1200 920L1440 972L1680 1007L1920 938L1920 1081L1680 1081L1440 1081L1200 1081L960 1081L720 1081L480 1081L240 1081L0 1081Z" fill="#6c63ff"></path></svg>