<svg id="visual" viewBox="0 0 1920 1080" width="1920" height="1080" xmlns="http://www.w3.org/2000/svg" xmlns:xlink="http://www.w3.org/1999/xlink" version="1.1"><rect x="0" y="0" width="1920" height="1080" fill="#22144a"></rect><defs><linearGradient id="grad1_0" x1="43.8%" y1="0%" x2="100%" y2="100%"><stop offset="14.444444444444446%" stop-color="#6c63ff" stop-opacity="1"></stop><stop offset="85.55555555555554%" stop-color="#6c63ff" stop-opacity="1"></stop></linearGradient></defs><defs><linearGradient id="grad1_1" x1="43.8%" y1="0%" x2="100%" y2="100%"><stop offset="14.444444444444446%" stop-color="#6c63ff" stop-opacity="1"></stop><stop offset="85.55555555555554%" stop-color="#5546be" stop-opacity="1"></stop></linearGradient></defs><defs><linearGradient id="grad1_2" x1="43.8%" y1="0%" x2="100%" y2="100%"><stop offset="14.444444444444446%" stop-color="#3c2b81" stop-opacity="1"></stop><stop offset="85.55555555555554%" stop-color="#5546be" stop-opacity="1"></stop></linearGradient></defs><defs><linearGradient id="grad1_3" x1="43.8%" y1="0%" x2="100%" y2="100%"><stop offset="14.444444444444446%" stop-color="#3c2b81" stop-opacity="1"></stop><stop offset="85.55555555555554%" stop-color="#22144a" stop-opacity="1"></stop></linearGradient></defs><defs><linearGradient id="grad2_0" x1="0%" y1="0%" x2="56.3%" y2="100%"><stop offset="14.444444444444446%" stop-color="#6c63ff" stop-opacity="1"></stop><stop offset="85.55555555555554%" stop-color="#6c63ff" stop-opacity="1"></stop></linearGradient></defs><defs><linearGradient id="grad2_1" x1="0%" y1="0%" x2="56.3%" y2="100%"><stop offset="14.444444444444446%" stop-color="#5546be" stop-opacity="1"></stop><stop offset="85.55555555555554%" stop-color="#6c63ff" stop-opacity="1"></stop></linearGradient></defs><defs><linearGradient id="grad2_2" x1="0%" y1="0%" x2="56.3%" y2="100%"><stop offset="14.444444444444446%" stop-color="#5546be" stop-opacity="1"></stop><stop offset="85.55555555555554%" stop-color="#3c2b81" stop-opacity="1"></stop></linearGradient></defs><defs><linearGradient id="grad2_3" x1="0%" y1="0%" x2="56.3%" y2="100%"><stop offset="14.444444444444446%" stop-color="#22144a" stop-opacity="1"></stop><stop offset="85.55555555555554%" stop-color="#3c2b81" stop-opacity="1"></stop></linearGradient></defs><g transform="translate(1920, 0)"><path d="M0 756C-94.2 742.2 -188.3 728.4 -288.9 697.5C-389.5 666.7 -496.5 618.7 -534.6 534.6C-572.7 450.4 -541.8 330.1 -567.3 235C-592.7 139.8 -674.3 69.9 -756 0L0 0Z" fill="#2f1f65"></path><path d="M0 567C-70.6 556.7 -141.3 546.3 -216.7 523.1C-292.1 500 -372.4 464 -400.9 400.9C-429.5 337.8 -406.4 247.6 -425.4 176.2C-444.5 104.9 -505.8 52.4 -567 0L0 0Z" fill="#49389f"></path><path d="M0 378C-47.1 371.1 -94.2 364.2 -144.5 348.8C-194.8 333.3 -248.2 309.4 -267.3 267.3C-286.3 225.2 -270.9 165 -283.6 117.5C-296.3 69.9 -337.2 35 -378 0L0 0Z" fill="#6154de"></path><path d="M0 189C-23.5 185.6 -47.1 182.1 -72.2 174.4C-97.4 166.7 -124.1 154.7 -133.6 133.6C-143.2 112.6 -135.5 82.5 -141.8 58.7C-148.2 35 -168.6 17.5 -189 0L0 0Z" fill="#6c63ff"></path></g><g transform="translate(0, 1080)"><path d="M0 -756C84.8 -714.9 169.6 -673.9 267.1 -644.9C364.6 -615.8 474.9 -598.9 534.6 -534.6C594.3 -470.3 603.5 -358.7 631.9 -261.8C660.4 -164.8 708.2 -82.4 756 0L0 0Z" fill="#2f1f65"></path><path d="M0 -567C63.6 -536.2 127.2 -505.4 200.3 -483.7C273.5 -461.9 356.2 -449.1 400.9 -400.9C445.7 -352.7 452.6 -269 474 -196.3C495.3 -123.6 531.2 -61.8 567 0L0 0Z" fill="#49389f"></path><path d="M0 -378C42.4 -357.5 84.8 -336.9 133.6 -322.4C182.3 -307.9 237.4 -299.4 267.3 -267.3C297.1 -235.1 301.7 -179.4 316 -130.9C330.2 -82.4 354.1 -41.2 378 0L0 0Z" fill="#6154de"></path><path d="M0 -189C21.2 -178.7 42.4 -168.5 66.8 -161.2C91.2 -154 118.7 -149.7 133.6 -133.6C148.6 -117.6 150.9 -89.7 158 -65.4C165.1 -41.2 177.1 -20.6 189 0L0 0Z" fill="#6c63ff"></path></g></svg>