<svg id="visual" viewBox="0 0 1920 1080" width="1920" height="1080" xmlns="http://www.w3.org/2000/svg" xmlns:xlink="http://www.w3.org/1999/xlink" version="1.1"><rect x="0" y="0" width="1920" height="1080" fill="#22144a"></rect><defs><linearGradient id="grad1_0" x1="43.8%" y1="0%" x2="100%" y2="100%"><stop offset="14.444444444444446%" stop-color="#6c63ff" stop-opacity="1"></stop><stop offset="85.55555555555554%" stop-color="#6c63ff" stop-opacity="1"></stop></linearGradient></defs><defs><linearGradient id="grad1_1" x1="43.8%" y1="0%" x2="100%" y2="100%"><stop offset="14.444444444444446%" stop-color="#6c63ff" stop-opacity="1"></stop><stop offset="85.55555555555554%" stop-color="#5b4dce" stop-opacity="1"></stop></linearGradient></defs><defs><linearGradient id="grad1_2" x1="43.8%" y1="0%" x2="100%" y2="100%"><stop offset="14.444444444444446%" stop-color="#49389f" stop-opacity="1"></stop><stop offset="85.55555555555554%" stop-color="#5b4dce" stop-opacity="1"></stop></linearGradient></defs><defs><linearGradient id="grad1_3" x1="43.8%" y1="0%" x2="100%" y2="100%"><stop offset="14.444444444444446%" stop-color="#49389f" stop-opacity="1"></stop><stop offset="85.55555555555554%" stop-color="#362573" stop-opacity="1"></stop></linearGradient></defs><defs><linearGradient id="grad1_4" x1="43.8%" y1="0%" x2="100%" y2="100%"><stop offset="14.444444444444446%" stop-color="#22144a" stop-opacity="1"></stop><stop offset="85.55555555555554%" stop-color="#362573" stop-opacity="1"></stop></linearGradient></defs><defs><linearGradient id="grad2_0" x1="0%" y1="0%" x2="56.3%" y2="100%"><stop offset="14.444444444444446%" stop-color="#6c63ff" stop-opacity="1"></stop><stop offset="85.55555555555554%" stop-color="#6c63ff" stop-opacity="1"></stop></linearGradient></defs><defs><linearGradient id="grad2_1" x1="0%" y1="0%" x2="56.3%" y2="100%"><stop offset="14.444444444444446%" stop-color="#5b4dce" stop-opacity="1"></stop><stop offset="85.55555555555554%" stop-color="#6c63ff" stop-opacity="1"></stop></linearGradient></defs><defs><linearGradient id="grad2_2" x1="0%" y1="0%" x2="56.3%" y2="100%"><stop offset="14.444444444444446%" stop-color="#5b4dce" stop-opacity="1"></stop><stop offset="85.55555555555554%" stop-color="#49389f" stop-opacity="1"></stop></linearGradient></defs><defs><linearGradient id="grad2_3" x1="0%" y1="0%" x2="56.3%" y2="100%"><stop offset="14.444444444444446%" stop-color="#362573" stop-opacity="1"></stop><stop offset="85.55555555555554%" stop-color="#49389f" stop-opacity="1"></stop></linearGradient></defs><defs><linearGradient id="grad2_4" x1="0%" y1="0%" x2="56.3%" y2="100%"><stop offset="14.444444444444446%" stop-color="#362573" stop-opacity="1"></stop><stop offset="85.55555555555554%" stop-color="#22144a" stop-opacity="1"></stop></linearGradient></defs><g transform="translate(1920, 0)"><path d="M0 918C-125.9 911.2 -251.8 904.4 -351.3 848.1C-450.8 791.8 -523.9 686.1 -593.3 593.3C-662.6 500.4 -728.1 420.5 -781.6 323.8C-835.1 227 -876.5 113.5 -918 0L0 0Z" fill="#2c1c5e"></path><path d="M0 734.4C-100.7 729 -201.4 723.5 -281 678.5C-360.7 633.5 -419.2 548.9 -474.6 474.6C-530.1 400.3 -582.5 336.4 -625.3 259C-668.1 181.6 -701.2 90.8 -734.4 0L0 0Z" fill="#402f88"></path><path d="M0 550.8C-75.5 546.7 -151.1 542.6 -210.8 508.9C-270.5 475.1 -314.4 411.7 -356 356C-397.6 300.3 -436.9 252.3 -469 194.3C-501.1 136.2 -525.9 68.1 -550.8 0L0 0Z" fill="#5242b6"></path><path d="M0 367.2C-50.4 364.5 -100.7 361.8 -140.5 339.2C-180.3 316.7 -209.6 274.4 -237.3 237.3C-265 200.2 -291.2 168.2 -312.6 129.5C-334 90.8 -350.6 45.4 -367.2 0L0 0Z" fill="#6458e6"></path><path d="M0 183.6C-25.2 182.2 -50.4 180.9 -70.3 169.6C-90.2 158.4 -104.8 137.2 -118.7 118.7C-132.5 100.1 -145.6 84.1 -156.3 64.8C-167 45.4 -175.3 22.7 -183.6 0L0 0Z" fill="#6c63ff"></path></g><g transform="translate(0, 1080)"><path d="M0 -918C114.9 -891.7 229.7 -865.4 341.7 -825C453.7 -784.6 562.9 -730.2 649.1 -649.1C735.4 -568.1 798.8 -460.5 839.8 -347.9C880.8 -235.2 899.4 -117.6 918 0L0 0Z" fill="#2c1c5e"></path><path d="M0 -734.4C91.9 -713.4 183.8 -692.3 273.4 -660C363 -627.7 450.3 -584.1 519.3 -519.3C588.3 -454.5 639 -368.4 671.8 -278.3C704.6 -188.2 719.5 -94.1 734.4 0L0 0Z" fill="#402f88"></path><path d="M0 -550.8C68.9 -535 137.8 -519.2 205 -495C272.2 -470.8 337.7 -438.1 389.5 -389.5C441.2 -340.8 479.3 -276.3 503.9 -208.7C528.5 -141.1 539.6 -70.6 550.8 0L0 0Z" fill="#5242b6"></path><path d="M0 -367.2C45.9 -356.7 91.9 -346.2 136.7 -330C181.5 -313.9 225.1 -292.1 259.6 -259.6C294.2 -227.2 319.5 -184.2 335.9 -139.1C352.3 -94.1 359.8 -47 367.2 0L0 0Z" fill="#6458e6"></path><path d="M0 -183.6C23 -178.3 45.9 -173.1 68.3 -165C90.7 -156.9 112.6 -146 129.8 -129.8C147.1 -113.6 159.8 -92.1 168 -69.6C176.2 -47 179.9 -23.5 183.6 0L0 0Z" fill="#6c63ff"></path></g></svg>