<svg id="visual" viewBox="0 0 1920 1080" width="1920" height="1080" xmlns="http://www.w3.org/2000/svg" xmlns:xlink="http://www.w3.org/1999/xlink" version="1.1"><rect width="1920" height="1080" fill="#715DF2"></rect><g><g transform="translate(12 412)"><path d="M0 -151.3L131 -75.7L131 75.7L0 151.3L-131 75.7L-131 -75.7Z" stroke="#FFFFFF" fill="none" stroke-width="4"></path></g><g transform="translate(58 1038)"><path d="M0 -105L90.9 -52.5L90.9 52.5L0 105L-90.9 52.5L-90.9 -52.5Z" stroke="#FFFFFF" fill="none" stroke-width="4"></path></g><g transform="translate(961 99)"><path d="M0 -126L109.1 -63L109.1 63L0 126L-109.1 63L-109.1 -63Z" stroke="#FFFFFF" fill="none" stroke-width="4"></path></g><g transform="translate(498 1028)"><path d="M0 -134L116 -67L116 67L0 134L-116 67L-116 -67Z" stroke="#FFFFFF" fill="none" stroke-width="4"></path></g><g transform="translate(1193 678)"><path d="M0 -123L106.5 -61.5L106.5 61.5L0 123L-106.5 61.5L-106.5 -61.5Z" stroke="#FFFFFF" fill="none" stroke-width="4"></path></g><g transform="translate(1591 463)"><path d="M0 -96L83.1 -48L83.1 48L0 96L-83.1 48L-83.1 -48Z" stroke="#FFFFFF" fill="none" stroke-width="4"></path></g><g transform="translate(1704 911)"><path d="M0 -95L82.3 -47.5L82.3 47.5L0 95L-82.3 47.5L-82.3 -47.5Z" stroke="#FFFFFF" fill="none" stroke-width="4"></path></g><g transform="translate(334 487)"><path d="M0 -131L113.4 -65.5L113.4 65.5L0 131L-113.4 65.5L-113.4 -65.5Z" stroke="#FFFFFF" fill="none" stroke-width="4"></path></g></g></svg>