<svg id="visual" viewBox="0 0 1920 1080" width="1920" height="1080" xmlns="http://www.w3.org/2000/svg" xmlns:xlink="http://www.w3.org/1999/xlink" version="1.1"><rect x="0" y="0" width="1920" height="1080" fill="#18102f"></rect><path d="M0 701L240 778L480 795L720 730L960 629L1200 685L1440 782L1680 686L1920 672L1920 1081L1680 1081L1440 1081L1200 1081L960 1081L720 1081L480 1081L240 1081L0 1081Z" fill="#6c63ff"></path><path d="M0 731L240 860L480 772L720 778L960 835L1200 829L1440 778L1680 827L1920 736L1920 1081L1680 1081L1440 1081L1200 1081L960 1081L720 1081L480 1081L240 1081L0 1081Z" fill="#bd7aef"></path><path d="M0 916L240 799L480 846L720 818L960 897L1200 852L1440 887L1680 795L1920 816L1920 1081L1680 1081L1440 1081L1200 1081L960 1081L720 1081L480 1081L240 1081L0 1081Z" fill="#e79de6"></path><path d="M0 893L240 898L480 962L720 947L960 970L1200 941L1440 955L1680 966L1920 880L1920 1081L1680 1081L1440 1081L1200 1081L960 1081L720 1081L480 1081L240 1081L0 1081Z" fill="#fcc7e8"></path><path d="M0 949L240 986L480 1000L720 1033L960 1002L1200 994L1440 972L1680 1024L1920 957L1920 1081L1680 1081L1440 1081L1200 1081L960 1081L720 1081L480 1081L240 1081L0 1081Z" fill="#fff4f8"></path></svg>