<svg width="24" height="24" xmlns="http://www.w3.org/2000/svg" fill-rule="evenodd" clip-rule="evenodd"><path d="M12 17.925l-.976 2.014-2.217.305 1.615 1.552-.395 2.204 1.973-1.057 1.973 1.056-.393-2.203 1.613-1.552-2.217-.305-.976-2.014zm-7.807 0l-.976 2.014-2.217.305 1.615 1.552-.395 2.204 1.973-1.057 1.973 1.056-.393-2.203 1.613-1.552-2.217-.305-.976-2.014zm15.614 0l-.976 2.014-2.217.305 1.615 1.552-.395 2.204 1.973-1.057 1.973 1.056-.393-2.203 1.613-1.552-2.217-.305-.976-2.014zm-8.307 3.52l-.512-.491.702-.097.31-.639.31.639.703.097-.511.491.125.699-.627-.335-.625.334.125-.698zm-7.807 0l-.512-.491.702-.097.31-.639.31.639.703.097-.511.491.125.699-.627-.335-.625.334.125-.698zm15.614 0l-.512-.491.702-.097.31-.639.31.639.703.097-.511.491.125.699-.627-.335-.625.334.125-.698zm1.693-4.445h-17.997l-.003-1.162c-.009-2.446.372-3.273 2.938-3.858 2.661-.601 3.739-.995 3.126-2.123-1.718-3.16-2.043-5.94-.916-7.828.769-1.29 2.175-2.029 3.852-2.029 1.666 0 3.06.729 3.828 1.999 1.126 1.865.811 4.654-.89 7.854-.632 1.194.621 1.56 3.159 2.135 2.512.573 2.913 1.406 2.903 3.868v1.144zm-16.996-1h15.992c.013-1.965.071-2.536-2.121-3.037-1.783-.404-3.465-.786-3.974-1.89-.229-.499-.178-1.067.151-1.688 1.529-2.878 1.854-5.317.917-6.87-.59-.977-1.645-1.515-2.969-1.515-1.334 0-2.397.547-2.99 1.541-.94 1.572-.607 4.001.936 6.84.336.619.392 1.187.165 1.687-.505 1.108-2.257 1.505-3.952 1.888-2.171.495-2.167.949-2.155 3.044z"/></svg>